<svg display="none" xmlns="http://www.w3.org/2000/svg">
	<symbol id="mesege" viewBox="0 0 18 18">
		<path fill-rule="evenodd" clip-rule="evenodd"
			d="M2 3.75C2 2.50736 3.00736 1.5 4.25 1.5H14.75C15.9926 1.5 17 2.50736 17 3.75V11.6363C17 12.6656 16.1656 13.5 15.1363 13.5C14.8987 13.5 14.7249 13.7241 14.7841 13.9543L14.83 14.1329C15.3115 16.0052 13.127 17.4087 11.6242 16.1925L8.5034 13.667C8.36989 13.5589 8.20334 13.5 8.0316 13.5H4.25C3.00736 13.5 2 12.4926 2 11.25V3.75ZM4.25 3C3.83579 3 3.5 3.33579 3.5 3.75V11.25C3.5 11.6642 3.83579 12 4.25 12H8.0316C8.54684 12 9.04647 12.1768 9.447 12.501L12.5678 15.0265C12.9473 15.3335 13.4988 14.9792 13.3773 14.5064L13.3313 14.3278C13.0281 13.1486 13.9187 12 15.1363 12C15.3372 12 15.5 11.8372 15.5 11.6363V3.75C15.5 3.33579 15.1642 3 14.75 3H4.25Z" />
		<path
			d="M5 5.25C5 4.83579 5.33579 4.5 5.75 4.5H13.25C13.6642 4.5 14 4.83579 14 5.25C14 5.66421 13.6642 6 13.25 6H5.75C5.33579 6 5 5.66421 5 5.25Z" />
		<path
			d="M5 8.25C5 7.83579 5.33579 7.5 5.75 7.5H10.25C10.6642 7.5 11 7.83579 11 8.25C11 8.66421 10.6642 9 10.25 9H5.75C5.33579 9 5 8.66421 5 8.25Z" />
	</symbol>
</svg>