<svg width="18" height="18" viewBox="0 0 18 18" fill="none" xmlns="http://www.w3.org/2000/svg">
<path fill-rule="evenodd" clip-rule="evenodd" d="M3.61342 3.21745C3.3988 3.43231 3.20201 3.69586 3.07477 3.92536C2.91496 4.20585 2.79698 4.51344 2.72586 4.83323L2.68884 5.02646C2.10552 7.98595 2.84633 10.6334 5.29183 13.0615C6.89638 14.6546 8.11309 15.3093 9.77906 15.5482C10.049 15.587 10.331 15.6161 10.6665 15.6409L11.3564 15.6828C11.7413 15.7027 12.3828 15.7347 12.6017 15.7472C12.8901 15.7636 13.2717 15.7084 13.7844 15.5883L13.8621 15.5656C14.3098 15.4074 14.7185 15.1509 15.0607 14.8083C16.3131 13.5545 16.3131 11.5217 15.0607 10.268L14.9491 10.1614C13.7384 9.05902 11.8871 9.04895 10.6651 10.1366L10.5203 10.2677L9.74597 11.0429C9.57629 11.2127 9.30913 11.2357 9.11295 11.0974C8.70486 10.8096 7.62057 9.74833 7.35588 9.38664C7.212 9.19003 7.23289 8.91773 7.40508 8.74542L8.08724 8.06292L8.1456 8.01545L8.23223 7.93517C8.24785 7.92012 8.26377 7.9045 8.27955 7.8887C9.56807 6.59877 9.56807 4.50738 8.27955 3.21745C6.99104 1.92752 4.90194 1.92752 3.61342 3.21745ZM4.66003 4.26521C5.37052 3.55394 6.52246 3.55394 7.23295 4.26521C7.94344 4.97648 7.94344 6.12967 7.23295 6.84094C7.18899 6.88495 7.1432 6.92641 7.0957 6.96528L6.35874 7.6974C5.66992 8.3867 5.58635 9.47588 6.16189 10.2623C6.52209 10.7545 7.72195 11.9289 8.26052 12.3087L8.36443 12.3773C9.13741 12.853 10.1434 12.7405 10.7926 12.0906L11.5084 11.3738L11.5182 11.3688L11.5872 11.3013C12.2627 10.6402 13.3451 10.6461 14.0141 11.3157C14.6885 11.9908 14.6885 13.0854 14.0141 13.7605L13.899 13.8659C13.7801 13.9655 13.6499 14.0476 13.5111 14.1111L13.3991 14.1561L13.2088 14.198L13.0079 14.2356C12.8567 14.261 12.7472 14.2713 12.6858 14.2678L11.183 14.1897L10.7848 14.1638L10.4395 14.1348C10.2776 14.1192 10.1301 14.1017 9.98902 14.0815C8.6553 13.8901 7.72326 13.3886 6.33412 12.0094C4.31564 10.0053 3.69 7.93223 4.10242 5.52199L4.14556 5.28768C4.18466 5.04771 4.25707 4.84092 4.36474 4.65189C4.4303 4.53375 4.5443 4.38106 4.66003 4.26521Z" fill="black"/>
</svg>
