<svg width="23" height="23" viewBox="0 0 23 23" fill="none" xmlns="http://www.w3.org/2000/svg">
<path d="M22.0648 3.23662C22.7233 2.57809 22.7232 1.51031 22.0646 0.851674C21.4059 0.193035 20.3381 0.192945 19.6796 0.851473L11.4655 9.06562L3.24158 0.841721C2.58294 0.183081 1.51516 0.182991 0.856634 0.841519C0.198105 1.50005 0.198197 2.56782 0.856837 3.22646L9.08073 11.4504L0.851162 19.6799C0.192633 20.3385 0.192723 21.4062 0.851363 22.0649C1.51 22.7235 2.57778 22.7236 3.23631 22.0651L11.4659 13.8355L19.6849 22.0546C20.3436 22.7132 21.4114 22.7133 22.0699 22.0548C22.7284 21.3962 22.7283 20.3285 22.0697 19.6698L13.8506 11.4508L22.0648 3.23662Z" fill="#525260"/>
</svg>
