<svg display="none" xmlns="http://www.w3.org/2000/svg">
	<symbol id="mesege" viewBox="0 0 18 18">
		<path fill-rule="evenodd" clip-rule="evenodd"
			d="M2 3.75C2 2.50736 3.00736 1.5 4.25 1.5H14.75C15.9926 1.5 17 2.50736 17 3.75V11.6363C17 12.6656 16.1656 13.5 15.1363 13.5C14.8987 13.5 14.7249 13.7241 14.7841 13.9543L14.83 14.1329C15.3115 16.0052 13.127 17.4087 11.6242 16.1925L8.5034 13.667C8.36989 13.5589 8.20334 13.5 8.0316 13.5H4.25C3.00736 13.5 2 12.4926 2 11.25V3.75ZM4.25 3C3.83579 3 3.5 3.33579 3.5 3.75V11.25C3.5 11.6642 3.83579 12 4.25 12H8.0316C8.54684 12 9.04647 12.1768 9.447 12.501L12.5678 15.0265C12.9473 15.3335 13.4988 14.9792 13.3773 14.5064L13.3313 14.3278C13.0281 13.1486 13.9187 12 15.1363 12C15.3372 12 15.5 11.8372 15.5 11.6363V3.75C15.5 3.33579 15.1642 3 14.75 3H4.25Z" />
		<path
			d="M5 5.25C5 4.83579 5.33579 4.5 5.75 4.5H13.25C13.6642 4.5 14 4.83579 14 5.25C14 5.66421 13.6642 6 13.25 6H5.75C5.33579 6 5 5.66421 5 5.25Z" />
		<path
			d="M5 8.25C5 7.83579 5.33579 7.5 5.75 7.5H10.25C10.6642 7.5 11 7.83579 11 8.25C11 8.66421 10.6642 9 10.25 9H5.75C5.33579 9 5 8.66421 5 8.25Z" />
	</symbol>
	<symbol id="arrow-link" viewBox="2 2 15 15">
		<path fill-rule="evenodd" clip-rule="evenodd"
			d="M6.73621 5.25C6.322 5.25 5.98621 4.91421 5.98621 4.5C5.98621 4.08579 6.322 3.75 6.73621 3.75H13.5395C13.9537 3.75 14.2895 4.08579 14.2895 4.5L14.2895 11.3033C14.2895 11.7175 13.9537 12.0533 13.5395 12.0533C13.1253 12.0533 12.7895 11.7175 12.7895 11.3033L12.7895 6.25736L4.99078 14.1204C4.69789 14.4133 4.22301 14.4133 3.93012 14.1204C3.63723 13.8275 3.63723 13.3526 3.93012 13.0597L11.6756 5.25H6.73621Z" />
	</symbol>
	<symbol id="mesege-footer" viewBox="2 2 15 15">
		<path fill-rule="evenodd" clip-rule="evenodd"
			d="M2 4.67618C2 3.43354 3.00736 2.42618 4.25 2.42618H14.75C15.9926 2.42618 17 3.43354 17 4.67618V12.5625C17 13.5918 16.1656 14.4262 15.1363 14.4262C14.8987 14.4262 14.7249 14.6503 14.7841 14.8804L14.83 15.059C15.3115 16.9314 13.127 18.3348 11.6242 17.1187L8.5034 14.5932C8.36989 14.4851 8.20334 14.4262 8.0316 14.4262H4.25C3.00736 14.4262 2 13.4188 2 12.1762V4.67618ZM4.25 3.92618C3.83579 3.92618 3.5 4.26196 3.5 4.67618V12.1762C3.5 12.5904 3.83579 12.9262 4.25 12.9262H8.0316C8.54684 12.9262 9.04647 13.103 9.447 13.4271L12.5678 15.9526C12.9473 16.2597 13.4988 15.9054 13.3773 15.4326L13.3313 15.254C13.0281 14.0747 13.9187 12.9262 15.1363 12.9262C15.3372 12.9262 15.5 12.7633 15.5 12.5625V4.67618C15.5 4.26196 15.1642 3.92618 14.75 3.92618H4.25Z" />
	</symbol>
	<symbol id="phone" viewBox="2 2 15 15">
		<path fill-rule="evenodd" clip-rule="evenodd"
			d="M3.61342 3.21745C3.3988 3.43231 3.20201 3.69586 3.07477 3.92536C2.91496 4.20585 2.79698 4.51344 2.72586 4.83323L2.68884 5.02646C2.10552 7.98595 2.84633 10.6334 5.29183 13.0615C6.89638 14.6546 8.11309 15.3093 9.77906 15.5482C10.049 15.587 10.331 15.6161 10.6665 15.6409L11.3564 15.6828C11.7413 15.7027 12.3828 15.7347 12.6017 15.7472C12.8901 15.7636 13.2717 15.7084 13.7844 15.5883L13.8621 15.5656C14.3098 15.4074 14.7185 15.1509 15.0607 14.8083C16.3131 13.5545 16.3131 11.5217 15.0607 10.268L14.9491 10.1614C13.7384 9.05902 11.8871 9.04895 10.6651 10.1366L10.5203 10.2677L9.74597 11.0429C9.57629 11.2127 9.30913 11.2357 9.11295 11.0974C8.70486 10.8096 7.62057 9.74833 7.35588 9.38664C7.212 9.19003 7.23289 8.91773 7.40508 8.74542L8.08724 8.06292L8.1456 8.01545L8.23223 7.93517C8.24785 7.92012 8.26377 7.9045 8.27955 7.8887C9.56807 6.59877 9.56807 4.50738 8.27955 3.21745C6.99104 1.92752 4.90194 1.92752 3.61342 3.21745ZM4.66003 4.26521C5.37052 3.55394 6.52246 3.55394 7.23295 4.26521C7.94344 4.97648 7.94344 6.12967 7.23295 6.84094C7.18899 6.88495 7.1432 6.92641 7.0957 6.96528L6.35874 7.6974C5.66992 8.3867 5.58635 9.47588 6.16189 10.2623C6.52209 10.7545 7.72195 11.9289 8.26052 12.3087L8.36443 12.3773C9.13741 12.853 10.1434 12.7405 10.7926 12.0906L11.5084 11.3738L11.5182 11.3688L11.5872 11.3013C12.2627 10.6402 13.3451 10.6461 14.0141 11.3157C14.6885 11.9908 14.6885 13.0854 14.0141 13.7605L13.899 13.8659C13.7801 13.9655 13.6499 14.0476 13.5111 14.1111L13.3991 14.1561L13.2088 14.198L13.0079 14.2356C12.8567 14.261 12.7472 14.2713 12.6858 14.2678L11.183 14.1897L10.7848 14.1638L10.4395 14.1348C10.2776 14.1192 10.1301 14.1017 9.98902 14.0815C8.6553 13.8901 7.72326 13.3886 6.33412 12.0094C4.31564 10.0053 3.69 7.93223 4.10242 5.52199L4.14556 5.28768C4.18466 5.04771 4.25707 4.84092 4.36474 4.65189C4.4303 4.53375 4.5443 4.38106 4.66003 4.26521Z" />
	</symbol>
	<symbol id="whats" viewBox="5 5 22 22">
		<path
			d="M20.4791 17.3929C20.4427 17.3754 19.0819 16.7053 18.8401 16.6183C18.7414 16.5828 18.6356 16.5482 18.5231 16.5482C18.3394 16.5482 18.185 16.6398 18.0647 16.8197C17.9288 17.0217 17.5173 17.5027 17.3901 17.6464C17.3735 17.6654 17.3509 17.6881 17.3373 17.6881C17.3251 17.6881 17.1145 17.6014 17.0507 17.5737C15.5909 16.9395 14.4829 15.4146 14.3309 15.1575C14.3092 15.1205 14.3083 15.1037 14.3081 15.1037C14.3135 15.0841 14.3626 15.0349 14.3879 15.0095C14.462 14.9362 14.5423 14.8395 14.62 14.746C14.6568 14.7017 14.6937 14.6574 14.7298 14.6155C14.8426 14.4844 14.8927 14.3826 14.9509 14.2646L14.9814 14.2034C15.1235 13.9211 15.0021 13.6829 14.9629 13.606C14.9307 13.5417 14.3561 12.1549 14.2951 12.0092C14.1481 11.6576 13.954 11.4939 13.6843 11.4939C13.6592 11.4939 13.6843 11.4939 13.5793 11.4983C13.4515 11.5037 12.7554 11.5954 12.4477 11.7894C12.1213 11.9951 11.5692 12.651 11.5692 13.8044C11.5692 14.8426 12.228 15.8227 12.5108 16.1955C12.5178 16.2049 12.5307 16.224 12.5495 16.2514C13.6327 17.8334 14.9831 19.0057 16.352 19.5526C17.6698 20.079 18.2939 20.1398 18.6487 20.1398C18.7978 20.1398 18.9172 20.1281 19.0224 20.1178L19.0892 20.1114C19.5445 20.0711 20.545 19.5526 20.7726 18.9202C20.9518 18.4221 20.9991 17.8778 20.8798 17.6803C20.7981 17.546 20.6574 17.4784 20.4791 17.3929Z" />
		<path
			d="M16.1658 6.66675C11.1102 6.66675 6.99728 10.7488 6.99728 15.7663C6.99728 17.3892 7.43158 18.9777 8.25431 20.368L6.67958 25.0132C6.65025 25.0998 6.67207 25.1955 6.73613 25.2607C6.78237 25.308 6.8451 25.3334 6.90916 25.3334C6.9337 25.3334 6.95843 25.3297 6.98255 25.322L11.8262 23.7829C13.1516 24.4911 14.6497 24.8649 16.1658 24.8649C21.2209 24.8649 25.3334 20.7833 25.3334 15.7663C25.3334 10.7488 21.2209 6.66675 16.1658 6.66675ZM16.1658 22.9694C14.7392 22.9694 13.3574 22.5575 12.1696 21.7781C12.1297 21.7518 12.0833 21.7384 12.0367 21.7384C12.012 21.7384 11.9873 21.7421 11.9632 21.7498L9.53686 22.5211L10.3201 20.2102C10.3455 20.1354 10.3328 20.0529 10.2861 19.9892C9.38164 18.7533 8.90352 17.2931 8.90352 15.7663C8.90352 11.794 12.1613 8.56226 16.1657 8.56226C20.1696 8.56226 23.427 11.794 23.427 15.7663C23.4271 19.7381 20.1697 22.9694 16.1658 22.9694Z" />
	</symbol>
</svg>