<svg width="56" height="20" viewBox="0 0 56 20" fill="none" xmlns="http://www.w3.org/2000/svg">
<path d="M18.316 17V7.2H22.908C24.084 7.2 24.98 7.43333 25.596 7.9C26.212 8.35733 26.52 8.97333 26.52 9.748C26.52 10.2707 26.3987 10.7187 26.156 11.092C25.9133 11.456 25.5867 11.7407 25.176 11.946C24.7747 12.142 24.336 12.24 23.86 12.24L24.112 11.736C24.6627 11.736 25.1573 11.8387 25.596 12.044C26.0347 12.24 26.38 12.5293 26.632 12.912C26.8933 13.2947 27.024 13.7707 27.024 14.34C27.024 15.18 26.702 15.8333 26.058 16.3C25.414 16.7667 24.4573 17 23.188 17H18.316ZM20.136 15.572H23.076C23.7573 15.572 24.28 15.46 24.644 15.236C25.008 15.012 25.19 14.6527 25.19 14.158C25.19 13.6727 25.008 13.318 24.644 13.094C24.28 12.8607 23.7573 12.744 23.076 12.744H19.996V11.33H22.712C23.3467 11.33 23.832 11.218 24.168 10.994C24.5133 10.77 24.686 10.434 24.686 9.986C24.686 9.52867 24.5133 9.188 24.168 8.964C23.832 8.74 23.3467 8.628 22.712 8.628H20.136V15.572ZM30.6464 11.274H35.5184V12.772H30.6464V11.274ZM30.7864 15.474H36.3164V17H28.9664V7.2H36.1204V8.726H30.7864V15.474ZM40.3333 17V8.74H37.0853V7.2H45.4013V8.74H42.1533V17H40.3333ZM44.889 17L49.299 7.2H51.091L55.515 17H53.611L49.817 8.166H50.545L46.765 17H44.889ZM46.919 14.732L47.409 13.304H52.701L53.191 14.732H46.919Z" fill="white"/>
<path d="M9.03978 0L14.0002 16.7317H10.2696L7.1709 6.277L9.03978 0Z" fill="white"/>
<path d="M8.53659 0H4.99664L0 16.7317H3.53995L8.53659 0Z" fill="white"/>
<path d="M6.92839 10.5875L4.28756 10.5854L3.41504 13.3151L7.85406 13.3172L6.92839 10.5875Z" fill="white"/>
</svg>
