<svg width="19" height="20" viewBox="0 0 19 20" fill="none" xmlns="http://www.w3.org/2000/svg">
<path fill-rule="evenodd" clip-rule="evenodd" d="M2 4.67618C2 3.43354 3.00736 2.42618 4.25 2.42618H14.75C15.9926 2.42618 17 3.43354 17 4.67618V12.5625C17 13.5918 16.1656 14.4262 15.1363 14.4262C14.8987 14.4262 14.7249 14.6503 14.7841 14.8804L14.83 15.059C15.3115 16.9314 13.127 18.3348 11.6242 17.1187L8.5034 14.5932C8.36989 14.4851 8.20334 14.4262 8.0316 14.4262H4.25C3.00736 14.4262 2 13.4188 2 12.1762V4.67618ZM4.25 3.92618C3.83579 3.92618 3.5 4.26196 3.5 4.67618V12.1762C3.5 12.5904 3.83579 12.9262 4.25 12.9262H8.0316C8.54684 12.9262 9.04647 13.103 9.447 13.4271L12.5678 15.9526C12.9473 16.2597 13.4988 15.9054 13.3773 15.4326L13.3313 15.254C13.0281 14.0747 13.9187 12.9262 15.1363 12.9262C15.3372 12.9262 15.5 12.7633 15.5 12.5625V4.67618C15.5 4.26196 15.1642 3.92618 14.75 3.92618H4.25Z" fill="black"/>
</svg>
