<svg width="36" height="36" viewBox="0 0 36 36" fill="none" xmlns="http://www.w3.org/2000/svg">
<rect width="36" height="36" rx="18" fill="#0C003F"/>
<path d="M7.35424 21.0273C6.95369 21.3706 6.67851 21.8529 6.59675 22.4006H6.27251C6.12263 22.4006 6 22.278 6 22.1281V21.2998C6 21.1499 6.12259 21.0273 6.27251 21.0273L7.35424 21.0273ZM10.4768 22.4006C10.4986 22.5068 10.5095 22.6131 10.5095 22.7248C10.5095 23.6594 9.75204 24.4196 8.81471 24.4196C7.88012 24.4196 7.11988 23.6594 7.11988 22.7248C7.11988 22.6131 7.13075 22.5068 7.15255 22.4006C7.30239 21.6185 7.98906 21.0273 8.81467 21.0273C9.64027 21.0273 10.3297 21.6185 10.4768 22.4006ZM9.66212 22.7248C9.66212 22.6104 9.64035 22.4986 9.59675 22.4006C9.47141 22.0927 9.16894 21.8774 8.81475 21.8774C8.46051 21.8774 8.15808 22.0927 8.03271 22.4006C7.9891 22.4986 7.96733 22.6104 7.96733 22.7248C7.96733 23.1907 8.34608 23.5722 8.81475 23.5722C9.28341 23.5722 9.66212 23.1907 9.66212 22.7248ZM6.67082 19.9401V11.8175C6.67082 11.366 7.03682 11 7.48827 11H20.5128C20.9643 11 21.3302 11.366 21.3302 11.8175V19.9401C21.3302 20.0899 21.2076 20.2125 21.0578 20.2125H6.94333C6.79345 20.2125 6.67082 20.0899 6.67082 19.9401ZM19.352 19.0231C19.352 19.1524 19.4569 19.2573 19.5862 19.2573H19.5935C19.7229 19.2573 19.8277 19.1524 19.8277 19.0231V12.2833C19.8277 12.154 19.7229 12.0491 19.5935 12.0491H19.5862C19.4569 12.0491 19.352 12.154 19.352 12.2833V19.0231ZM17.1496 19.0231C17.1496 19.1524 17.2544 19.2573 17.3837 19.2573H17.391C17.5204 19.2573 17.6252 19.1524 17.6252 19.0231V12.2833C17.6252 12.154 17.5204 12.0491 17.391 12.0491H17.3837C17.2544 12.0491 17.1496 12.154 17.1496 12.2833V19.0231ZM14.9471 19.0231C14.9471 19.1524 15.052 19.2573 15.1813 19.2573H15.1886C15.3179 19.2573 15.4228 19.1524 15.4228 19.0231V12.2833C15.4228 12.154 15.3179 12.0491 15.1886 12.0491H15.1813C15.052 12.0491 14.9471 12.154 14.9471 12.2833V19.0231ZM12.7447 19.0231C12.7447 19.1524 12.8496 19.2573 12.9789 19.2573H12.9862C13.1155 19.2573 13.2204 19.1524 13.2204 19.0231V12.2833C13.2204 12.154 13.1155 12.0491 12.9862 12.0491H12.9789C12.8496 12.0491 12.7447 12.154 12.7447 12.2833V19.0231ZM10.5423 19.0231C10.5423 19.1524 10.6471 19.2573 10.7765 19.2573H10.7838C10.9131 19.2573 11.0179 19.1524 11.0179 19.0231V12.2833C11.0179 12.154 10.9131 12.0491 10.7838 12.0491H10.7765C10.6471 12.0491 10.5423 12.154 10.5423 12.2833V19.0231ZM8.33984 19.0231C8.33984 19.1524 8.44471 19.2573 8.57404 19.2573H8.58133C8.71071 19.2573 8.81553 19.1524 8.81553 19.0231V12.2833C8.81553 12.154 8.71071 12.0491 8.58133 12.0491H8.57404C8.44471 12.0491 8.33984 12.154 8.33984 12.2833V19.0231ZM14.6594 22.4006C14.6812 22.5068 14.6921 22.6131 14.6921 22.7248C14.6921 23.6594 13.9346 24.4196 12.9973 24.4196C12.0627 24.4196 11.3025 23.6594 11.3025 22.7248C11.3025 22.6131 11.3134 22.5068 11.3351 22.4006C11.485 21.6185 12.1717 21.0273 12.9973 21.0273C13.8229 21.0273 14.5123 21.6185 14.6594 22.4006ZM13.8447 22.7248C13.8447 22.6104 13.8229 22.4986 13.782 22.4006C13.654 22.0927 13.3515 21.8774 12.9973 21.8774C12.6431 21.8774 12.3406 22.0927 12.2125 22.4006C12.1717 22.4986 12.1499 22.6104 12.1499 22.7248C12.1499 23.1907 12.5286 23.5722 12.9973 23.5722C13.466 23.5722 13.8447 23.1907 13.8447 22.7248ZM11.5368 21.0273H10.2753C10.5532 21.267 10.7739 21.5749 10.9074 21.9237C11.0382 21.575 11.2589 21.267 11.5368 21.0273ZM30 21.2997V22.1281C30 22.278 29.8774 22.4006 29.7275 22.4006H27.5205C27.3624 21.3188 26.4333 20.4823 25.3079 20.4823C24.1826 20.4823 23.2507 21.3188 23.0927 22.4006H15.2153C15.1335 21.8529 14.8583 21.3705 14.4578 21.0273H22.109V13.2344C22.109 12.9346 22.3515 12.6894 22.654 12.6894H25.2262C25.951 12.6894 26.6267 13.0491 27.0327 13.6485L28.6921 16.1063C28.9346 16.466 29.0654 16.891 29.0654 17.3242V21.0273H29.7275C29.8774 21.0273 30 21.1498 30 21.2997ZM27.2371 16.1689L25.9101 14.2834C25.8583 14.2125 25.7766 14.1689 25.6867 14.1689H23.6186C23.4687 14.1689 23.3461 14.2915 23.3461 14.4415V16.3243C23.3461 16.4769 23.4687 16.5967 23.6186 16.5967H27.0136C27.2344 16.5967 27.3624 16.3488 27.2371 16.1689ZM27.0027 22.7248C27.0027 23.6594 26.2425 24.4196 25.3079 24.4196C24.3706 24.4196 23.6131 23.6594 23.6131 22.7248C23.6131 21.7875 24.3706 21.0273 25.3079 21.0273C26.2425 21.0273 27.0027 21.7875 27.0027 22.7248ZM26.1553 22.7248C26.1553 22.2562 25.7766 21.8774 25.3079 21.8774C24.8393 21.8774 24.4605 22.2562 24.4605 22.7248C24.4605 23.1907 24.8393 23.5722 25.3079 23.5722C25.7766 23.5722 26.1553 23.1907 26.1553 22.7248Z" fill="white"/>
</svg>
