<svg width="25" height="25" viewBox="0 0 25 25" fill="none" xmlns="http://www.w3.org/2000/svg">
<path d="M18.0618 14.2071L20.71 16.8552C21.0661 17.2113 21.0661 17.7887 20.71 18.1448C18.7847 20.07 15.7369 20.2866 13.5587 18.653L11.9833 17.4714C10.2398 16.1638 8.69096 14.615 7.38331 12.8714L6.20174 11.296C4.56814 9.11788 4.78475 6.06999 6.70997 4.14477C7.06606 3.78867 7.64341 3.78867 7.9995 4.14477L10.6476 6.79289C11.0382 7.18342 11.0382 7.81658 10.6476 8.20711L9.62648 9.22825C9.4642 9.39054 9.42397 9.63846 9.5266 9.84373C10.7133 12.2171 12.6377 14.1415 15.011 15.3281C15.2163 15.4308 15.4642 15.3905 15.6265 15.2283L16.6476 14.2071C17.0382 13.8166 17.6713 13.8166 18.0618 14.2071Z" fill="#F2994A"/>
<path fill-rule="evenodd" clip-rule="evenodd" d="M20.71 18.1448C21.0661 17.7887 21.0661 17.2113 20.71 16.8552L18.0619 14.2071C18.0618 14.207 18.0617 14.207 18.0617 14.2069C17.6711 13.8166 17.0381 13.8166 16.6477 14.2071L15.8548 15L19.7596 18.9048C20.0977 18.6914 20.4169 18.4379 20.71 18.1448ZM5.94995 5.09517L9.85477 8.99999L10.6477 8.2071C11.0382 7.81657 11.0382 7.18341 10.6477 6.79288L7.99954 4.14476C7.64344 3.78866 7.06609 3.78866 6.71 4.14476C6.41687 4.43788 6.16336 4.75703 5.94995 5.09517Z" fill="#4F4F4F"/>
</svg>
