<svg width="51" height="51" viewBox="0 0 51 51" fill="none" xmlns="http://www.w3.org/2000/svg">
<path d="M36.0653 17.2366C36.7238 16.5781 36.7237 15.5103 36.0651 14.8516C35.4064 14.193 34.3386 14.1929 33.6801 14.8514L25.466 23.0656L17.2421 14.8417C16.5834 14.1831 15.5156 14.183 14.8571 14.8415C14.1986 15.5 14.1987 16.5678 14.8573 17.2264L23.0812 25.4503L14.8516 33.6799C14.1931 34.3384 14.1932 35.4062 14.8519 36.0648C15.5105 36.7235 16.5783 36.7236 17.2368 36.0651L25.4664 27.8355L33.6854 36.0545C34.3441 36.7132 35.4118 36.7133 36.0704 36.0547C36.7289 35.3962 36.7288 34.3284 36.0702 33.6698L27.8511 25.4507L36.0653 17.2366Z" fill="#525260"/>
</svg>
