<svg width="20" height="20" viewBox="0 0 20 20" fill="none" xmlns="http://www.w3.org/2000/svg">
<g clip-path="url(#clip0_166_406)">
<path d="M9.99996 18.3334C9.99996 18.3334 15.8333 13.3334 15.8333 7.50008C15.8333 4.27841 13.2216 1.66675 9.99996 1.66675C6.77829 1.66675 4.16663 4.27841 4.16663 7.50008C4.16663 13.3334 9.99996 18.3334 9.99996 18.3334ZM9.99996 3.33341C12.2975 3.33341 14.1666 5.20258 14.1666 7.50008C14.1666 11.0413 11.5379 14.3613 9.99996 16.0005C8.46163 14.3605 5.83329 11.0409 5.83329 7.50008C5.83329 5.20258 7.70246 3.33341 9.99996 3.33341Z" fill="#4F4F4F"/>
<path d="M9.99996 8.33341C10.4602 8.33341 10.8333 7.96032 10.8333 7.50008C10.8333 7.03984 10.4602 6.66675 9.99996 6.66675C9.53972 6.66675 9.16663 7.03984 9.16663 7.50008C9.16663 7.96032 9.53972 8.33341 9.99996 8.33341Z" fill="#4F4F4F"/>
</g>
<defs>
<clipPath id="clip0_166_406">
<rect width="20" height="20" fill="white"/>
</clipPath>
</defs>
</svg>
