<svg width="32" height="32" viewBox="0 0 32 32" fill="none" xmlns="http://www.w3.org/2000/svg">
<rect x="0.5" y="0.5" width="31" height="31" rx="5.5" stroke="white"/>
<path fill-rule="evenodd" clip-rule="evenodd" d="M7.24261 15.8311C11.907 13.799 15.0172 12.4592 16.5735 11.812C21.0168 9.96384 21.9401 9.64279 22.5419 9.63219C22.6743 9.62984 22.9702 9.66264 23.1619 9.81819C23.3238 9.94954 23.3683 10.1269 23.3896 10.2515C23.411 10.376 23.4375 10.6597 23.4164 10.8813C23.1756 13.4113 22.1337 19.5509 21.6037 22.3845C21.3794 23.5835 20.9378 23.9856 20.5102 24.0249C19.5811 24.1104 18.8755 23.4109 17.9756 22.8209C16.5674 21.8978 15.7718 21.3232 14.4049 20.4224C12.8252 19.3814 13.8493 18.8093 14.7496 17.8742C14.9852 17.6295 19.079 13.9059 19.1582 13.5681C19.1682 13.5258 19.1774 13.3683 19.0838 13.2852C18.9902 13.202 18.8522 13.2305 18.7525 13.2531C18.6113 13.2851 16.3617 14.7721 12.0036 17.7138C11.3651 18.1523 10.7867 18.366 10.2685 18.3548C9.69721 18.3424 8.59826 18.0318 7.78136 17.7662C6.77936 17.4405 5.98296 17.2683 6.05231 16.7151C6.08846 16.427 6.48521 16.1323 7.24261 15.8311Z" fill="white"/>
</svg>
