<svg width="32" height="32" viewBox="0 0 32 32" fill="none" xmlns="http://www.w3.org/2000/svg">
<rect x="0.5" y="0.5" width="31" height="31" rx="5.5" stroke="white"/>
<path d="M20.4791 17.3929C20.4427 17.3754 19.0819 16.7053 18.8401 16.6183C18.7414 16.5828 18.6356 16.5482 18.5231 16.5482C18.3394 16.5482 18.185 16.6398 18.0647 16.8197C17.9288 17.0217 17.5173 17.5027 17.3901 17.6464C17.3735 17.6654 17.3509 17.6881 17.3373 17.6881C17.3251 17.6881 17.1145 17.6014 17.0507 17.5737C15.5909 16.9395 14.4829 15.4146 14.3309 15.1575C14.3092 15.1205 14.3083 15.1037 14.3081 15.1037C14.3135 15.0841 14.3626 15.0349 14.3879 15.0095C14.462 14.9362 14.5423 14.8395 14.62 14.746C14.6568 14.7017 14.6937 14.6574 14.7298 14.6155C14.8426 14.4844 14.8927 14.3826 14.9509 14.2646L14.9814 14.2034C15.1235 13.9211 15.0021 13.6829 14.9629 13.606C14.9307 13.5417 14.3561 12.1549 14.2951 12.0092C14.1481 11.6576 13.954 11.4939 13.6843 11.4939C13.6592 11.4939 13.6843 11.4939 13.5793 11.4983C13.4515 11.5037 12.7554 11.5954 12.4477 11.7894C12.1213 11.9951 11.5692 12.651 11.5692 13.8044C11.5692 14.8426 12.228 15.8227 12.5108 16.1955C12.5178 16.2049 12.5307 16.224 12.5495 16.2514C13.6327 17.8334 14.9831 19.0057 16.352 19.5526C17.6698 20.079 18.2939 20.1398 18.6487 20.1398C18.7978 20.1398 18.9172 20.1281 19.0224 20.1178L19.0892 20.1114C19.5445 20.0711 20.545 19.5526 20.7726 18.9202C20.9518 18.4221 20.9991 17.8778 20.8798 17.6803C20.7981 17.546 20.6574 17.4784 20.4791 17.3929Z" fill="white"/>
<path d="M16.1658 6.66675C11.1102 6.66675 6.99728 10.7488 6.99728 15.7663C6.99728 17.3892 7.43158 18.9777 8.25431 20.368L6.67958 25.0132C6.65025 25.0998 6.67207 25.1955 6.73613 25.2607C6.78237 25.308 6.8451 25.3334 6.90916 25.3334C6.9337 25.3334 6.95843 25.3297 6.98255 25.322L11.8262 23.7829C13.1516 24.4911 14.6497 24.8649 16.1658 24.8649C21.2209 24.8649 25.3334 20.7833 25.3334 15.7663C25.3334 10.7488 21.2209 6.66675 16.1658 6.66675ZM16.1658 22.9694C14.7392 22.9694 13.3574 22.5575 12.1696 21.7781C12.1297 21.7518 12.0833 21.7384 12.0367 21.7384C12.012 21.7384 11.9873 21.7421 11.9632 21.7498L9.53686 22.5211L10.3201 20.2102C10.3455 20.1354 10.3328 20.0529 10.2861 19.9892C9.38164 18.7533 8.90352 17.2931 8.90352 15.7663C8.90352 11.794 12.1613 8.56226 16.1657 8.56226C20.1696 8.56226 23.427 11.794 23.427 15.7663C23.4271 19.7381 20.1697 22.9694 16.1658 22.9694Z" fill="white"/>
</svg>
